<?xml version="1.0" standalone="no"?>
<!DOCTYPE svg PUBLIC "-//W3C//DTD SVG 20010904//EN"
 "http://www.w3.org/TR/2001/REC-SVG-20010904/DTD/svg10.dtd">
<svg version="1.0" xmlns="http://www.w3.org/2000/svg"
 width="455.000000pt" height="455.000000pt" viewBox="0 0 455.000000 455.000000"
 preserveAspectRatio="xMidYMid meet">
<metadata>
Created by potrace 1.14, written by Peter Selinger 2001-2017
</metadata>
<g transform="translate(0.000000,455.000000) scale(0.100000,-0.100000)"
fill="#000000" stroke="none">
<path d="M2275 3308 c-33 -5 -92 -18 -132 -29 -39 -10 -96 -19 -126 -19 -35 0
-73 -8 -108 -24 -30 -12 -88 -33 -129 -45 -41 -13 -96 -34 -122 -47 -26 -13
-78 -31 -115 -40 -52 -12 -80 -26 -125 -62 -32 -26 -58 -49 -58 -52 0 -3 17
-22 38 -42 29 -28 57 -41 130 -62 134 -38 166 -36 213 13 51 55 152 122 256
171 48 23 103 55 122 72 18 16 45 35 58 41 23 10 28 8 49 -18 19 -24 31 -29
71 -31 88 -3 277 -24 332 -37 51 -11 59 -18 119 -92 61 -75 68 -80 111 -86 49
-6 191 -49 191 -58 0 -4 -29 -43 -65 -88 -61 -77 -64 -83 -55 -115 23 -77 4
-136 -48 -157 -39 -15 -336 -51 -424 -51 -47 0 -95 -7 -129 -18 -30 -11 -90
-22 -133 -26 -57 -5 -101 -17 -155 -41 -42 -18 -109 -41 -148 -50 -60 -14 -78
-23 -105 -54 -24 -25 -40 -35 -56 -33 -14 2 -78 -23 -155 -62 -119 -58 -141
-74 -222 -153 -67 -66 -103 -111 -143 -180 -28 -51 -52 -101 -52 -112 0 -17
32 -165 46 -213 3 -9 17 -19 32 -23 19 -4 34 -19 51 -51 30 -56 57 -75 171
-124 60 -26 118 -42 173 -49 45 -6 122 -18 170 -26 80 -15 93 -15 141 -1 30 9
85 16 122 16 94 0 288 37 354 67 43 20 69 25 120 24 78 -2 159 15 271 59 46
18 96 36 110 40 l26 8 -19 -87 -19 -86 22 -17 c11 -10 26 -18 33 -18 24 1 195
59 278 95 71 31 91 45 113 79 31 47 29 58 -31 179 -40 81 -42 115 -10 154 24
28 24 29 9 103 -11 55 -13 113 -9 220 l6 145 -33 20 c-44 28 -48 66 -9 95 30
22 30 22 25 109 -6 141 -23 244 -44 266 -32 36 -49 103 -49 194 l0 86 -35 24
c-19 13 -35 30 -35 38 0 28 -31 73 -49 73 -11 0 -44 -10 -75 -21 -45 -18 -59
-19 -71 -9 -20 17 -19 24 10 58 14 17 25 33 25 36 0 3 -17 17 -38 31 -27 18
-70 30 -154 45 -65 11 -152 29 -195 40 -83 22 -208 25 -318 8z m243 -1012 c18
-9 88 -16 212 -21 211 -8 246 -18 230 -61 -6 -15 -7 -89 -3 -185 6 -149 8
-161 28 -178 21 -15 21 -19 9 -43 -7 -14 -20 -28 -29 -31 -8 -4 -18 -25 -21
-47 -6 -36 -12 -43 -53 -63 -27 -13 -58 -39 -76 -64 -26 -36 -45 -48 -134 -84
-62 -25 -122 -43 -150 -44 -26 -1 -86 -18 -136 -38 -73 -30 -98 -35 -133 -31
-32 5 -52 2 -77 -12 -31 -17 -35 -17 -59 -1 -25 17 -27 17 -55 -4 -26 -19 -37
-21 -91 -15 -50 6 -66 12 -88 37 -19 20 -48 35 -95 49 -37 10 -91 33 -119 50
l-50 31 -27 -25 c-34 -32 -49 -33 -57 -2 -4 17 4 42 27 83 l33 59 -22 30 c-14
18 -25 56 -32 104 -6 41 -15 79 -20 84 -20 20 -9 38 38 57 29 12 56 33 71 54
55 81 144 139 313 206 57 23 122 52 146 66 35 21 50 24 88 18 25 -3 59 -2 78
5 28 9 127 23 209 29 10 0 30 -5 45 -13z"/>
</g>
</svg>
